<mxfile host="app.diagrams.net" modified="2023-04-25T06:08:38.844Z" agent="Mozilla/5.0 (Windows NT 10.0; Win64; x64) AppleWebKit/537.36 (KHTML, like Gecko) Chrome/112.0.0.0 Safari/537.36" etag="C4_XtWrXx-CGM8NZI6ba" version="21.2.1" type="github">
  <diagram name="Page-1" id="74e2e168-ea6b-b213-b513-2b3c1d86103e">
    <mxGraphModel dx="1114" dy="676" grid="1" gridSize="10" guides="1" tooltips="1" connect="1" arrows="1" fold="1" page="1" pageScale="1" pageWidth="1400" pageHeight="850" background="none" math="0" shadow="0">
      <root>
        <mxCell id="0" />
        <mxCell id="1" parent="0" />
        <mxCell id="77e6c97f196da883-1" value="图像识别流程图" style="swimlane;html=1;childLayout=stackLayout;startSize=20;rounded=0;shadow=0;labelBackgroundColor=none;strokeWidth=1;fontFamily=Verdana;fontSize=8;align=center;" parent="1" vertex="1">
          <mxGeometry x="70" y="40" width="1290" height="300" as="geometry">
            <mxRectangle x="70" y="40" width="70" height="30" as="alternateBounds" />
          </mxGeometry>
        </mxCell>
        <mxCell id="77e6c97f196da883-2" value="识别阶段" style="swimlane;html=1;startSize=20;" parent="77e6c97f196da883-1" vertex="1">
          <mxGeometry y="20" width="470" height="280" as="geometry" />
        </mxCell>
        <mxCell id="PMfBoo3aBNSJoRgHsNJ--9" style="edgeStyle=orthogonalEdgeStyle;curved=1;rounded=0;orthogonalLoop=1;jettySize=auto;html=1;entryX=0;entryY=0.5;entryDx=0;entryDy=0;" edge="1" parent="77e6c97f196da883-2" source="77e6c97f196da883-8" target="PMfBoo3aBNSJoRgHsNJ--8">
          <mxGeometry relative="1" as="geometry" />
        </mxCell>
        <mxCell id="77e6c97f196da883-8" value="图片上传" style="rounded=1;whiteSpace=wrap;html=1;shadow=0;labelBackgroundColor=none;strokeWidth=1;fontFamily=Verdana;fontSize=8;align=center;" parent="77e6c97f196da883-2" vertex="1">
          <mxGeometry x="20" y="65" width="100" height="60" as="geometry" />
        </mxCell>
        <mxCell id="PMfBoo3aBNSJoRgHsNJ--10" style="edgeStyle=orthogonalEdgeStyle;curved=1;rounded=0;orthogonalLoop=1;jettySize=auto;html=1;entryX=0;entryY=0.5;entryDx=0;entryDy=0;" edge="1" parent="77e6c97f196da883-2" source="77e6c97f196da883-9" target="PMfBoo3aBNSJoRgHsNJ--8">
          <mxGeometry relative="1" as="geometry" />
        </mxCell>
        <mxCell id="77e6c97f196da883-9" value="阿里云MQ" style="rounded=1;whiteSpace=wrap;html=1;shadow=0;labelBackgroundColor=none;strokeWidth=1;fontFamily=Verdana;fontSize=8;align=center;" parent="77e6c97f196da883-2" vertex="1">
          <mxGeometry x="20" y="155" width="100" height="60" as="geometry" />
        </mxCell>
        <mxCell id="PMfBoo3aBNSJoRgHsNJ--12" style="edgeStyle=orthogonalEdgeStyle;curved=1;rounded=0;orthogonalLoop=1;jettySize=auto;html=1;exitX=1;exitY=0.5;exitDx=0;exitDy=0;entryX=0;entryY=0.5;entryDx=0;entryDy=0;" edge="1" parent="77e6c97f196da883-2" source="PMfBoo3aBNSJoRgHsNJ--8" target="PMfBoo3aBNSJoRgHsNJ--11">
          <mxGeometry relative="1" as="geometry" />
        </mxCell>
        <mxCell id="PMfBoo3aBNSJoRgHsNJ--8" value="解析厂家参数" style="rounded=1;whiteSpace=wrap;html=1;shadow=0;labelBackgroundColor=none;strokeWidth=1;fontFamily=Verdana;fontSize=8;align=center;" vertex="1" parent="77e6c97f196da883-2">
          <mxGeometry x="190" y="110" width="100" height="60" as="geometry" />
        </mxCell>
        <mxCell id="PMfBoo3aBNSJoRgHsNJ--11" value="识别图片" style="rounded=1;whiteSpace=wrap;html=1;shadow=0;labelBackgroundColor=none;strokeWidth=1;fontFamily=Verdana;fontSize=8;align=center;" vertex="1" parent="77e6c97f196da883-2">
          <mxGeometry x="330" y="110" width="100" height="60" as="geometry" />
        </mxCell>
        <mxCell id="77e6c97f196da883-3" value="结果回调" style="swimlane;html=1;startSize=20;" parent="77e6c97f196da883-1" vertex="1">
          <mxGeometry x="470" y="20" width="820" height="280" as="geometry" />
        </mxCell>
        <mxCell id="PMfBoo3aBNSJoRgHsNJ--18" style="edgeStyle=orthogonalEdgeStyle;curved=1;rounded=0;orthogonalLoop=1;jettySize=auto;html=1;entryX=0;entryY=0.5;entryDx=0;entryDy=0;" edge="1" parent="77e6c97f196da883-3" source="PMfBoo3aBNSJoRgHsNJ--13" target="PMfBoo3aBNSJoRgHsNJ--17">
          <mxGeometry relative="1" as="geometry" />
        </mxCell>
        <mxCell id="PMfBoo3aBNSJoRgHsNJ--13" value="http回调" style="rounded=1;whiteSpace=wrap;html=1;shadow=0;labelBackgroundColor=none;strokeWidth=1;fontFamily=Verdana;fontSize=8;align=center;" vertex="1" parent="77e6c97f196da883-3">
          <mxGeometry x="20" y="66" width="100" height="60" as="geometry" />
        </mxCell>
        <mxCell id="PMfBoo3aBNSJoRgHsNJ--19" style="edgeStyle=orthogonalEdgeStyle;curved=1;rounded=0;orthogonalLoop=1;jettySize=auto;html=1;entryX=0;entryY=0.5;entryDx=0;entryDy=0;" edge="1" parent="77e6c97f196da883-3" source="PMfBoo3aBNSJoRgHsNJ--14" target="PMfBoo3aBNSJoRgHsNJ--17">
          <mxGeometry relative="1" as="geometry" />
        </mxCell>
        <mxCell id="PMfBoo3aBNSJoRgHsNJ--14" value="延迟执行" style="rounded=1;whiteSpace=wrap;html=1;shadow=0;labelBackgroundColor=none;strokeWidth=1;fontFamily=Verdana;fontSize=8;align=center;" vertex="1" parent="77e6c97f196da883-3">
          <mxGeometry x="20" y="158" width="100" height="60" as="geometry" />
        </mxCell>
        <mxCell id="PMfBoo3aBNSJoRgHsNJ--21" style="edgeStyle=orthogonalEdgeStyle;curved=1;rounded=0;orthogonalLoop=1;jettySize=auto;html=1;entryX=0;entryY=0.5;entryDx=0;entryDy=0;" edge="1" parent="77e6c97f196da883-3" source="PMfBoo3aBNSJoRgHsNJ--17" target="PMfBoo3aBNSJoRgHsNJ--20">
          <mxGeometry relative="1" as="geometry" />
        </mxCell>
        <mxCell id="PMfBoo3aBNSJoRgHsNJ--17" value="统一数据格式" style="rounded=1;whiteSpace=wrap;html=1;shadow=0;labelBackgroundColor=none;strokeWidth=1;fontFamily=Verdana;fontSize=8;align=center;" vertex="1" parent="77e6c97f196da883-3">
          <mxGeometry x="180" y="110" width="100" height="60" as="geometry" />
        </mxCell>
        <mxCell id="PMfBoo3aBNSJoRgHsNJ--35" style="edgeStyle=orthogonalEdgeStyle;curved=1;rounded=1;hachureGap=4;orthogonalLoop=1;jettySize=auto;html=1;entryX=0;entryY=0.5;entryDx=0;entryDy=0;fontFamily=Architects Daughter;fontSource=https%3A%2F%2Ffonts.googleapis.com%2Fcss%3Ffamily%3DArchitects%2BDaughter;fontSize=16;dashed=1;exitX=0.5;exitY=0;exitDx=0;exitDy=0;" edge="1" parent="77e6c97f196da883-3" source="PMfBoo3aBNSJoRgHsNJ--20" target="PMfBoo3aBNSJoRgHsNJ--32">
          <mxGeometry relative="1" as="geometry" />
        </mxCell>
        <mxCell id="PMfBoo3aBNSJoRgHsNJ--47" style="edgeStyle=orthogonalEdgeStyle;curved=1;rounded=1;hachureGap=4;orthogonalLoop=1;jettySize=auto;html=1;entryX=0;entryY=0.5;entryDx=0;entryDy=0;fontFamily=Architects Daughter;fontSource=https%3A%2F%2Ffonts.googleapis.com%2Fcss%3Ffamily%3DArchitects%2BDaughter;fontSize=16;" edge="1" parent="77e6c97f196da883-3" source="PMfBoo3aBNSJoRgHsNJ--20" target="PMfBoo3aBNSJoRgHsNJ--46">
          <mxGeometry relative="1" as="geometry" />
        </mxCell>
        <mxCell id="PMfBoo3aBNSJoRgHsNJ--20" value="解析商品陈列&lt;br&gt;数据" style="rounded=1;whiteSpace=wrap;html=1;shadow=0;labelBackgroundColor=none;strokeWidth=1;fontFamily=Verdana;fontSize=8;align=center;" vertex="1" parent="77e6c97f196da883-3">
          <mxGeometry x="320" y="110" width="100" height="60" as="geometry" />
        </mxCell>
        <mxCell id="PMfBoo3aBNSJoRgHsNJ--24" value="生成统计数据" style="rounded=1;whiteSpace=wrap;html=1;shadow=0;labelBackgroundColor=none;strokeWidth=1;fontFamily=Verdana;fontSize=8;align=center;" vertex="1" parent="77e6c97f196da883-3">
          <mxGeometry x="670" y="110" width="100" height="60" as="geometry" />
        </mxCell>
        <mxCell id="PMfBoo3aBNSJoRgHsNJ--36" style="edgeStyle=orthogonalEdgeStyle;curved=1;rounded=1;hachureGap=4;orthogonalLoop=1;jettySize=auto;html=1;entryX=0.5;entryY=0;entryDx=0;entryDy=0;fontFamily=Architects Daughter;fontSource=https%3A%2F%2Ffonts.googleapis.com%2Fcss%3Ffamily%3DArchitects%2BDaughter;fontSize=16;exitX=1;exitY=0.5;exitDx=0;exitDy=0;dashed=1;" edge="1" parent="77e6c97f196da883-3" source="PMfBoo3aBNSJoRgHsNJ--32" target="PMfBoo3aBNSJoRgHsNJ--24">
          <mxGeometry relative="1" as="geometry" />
        </mxCell>
        <mxCell id="PMfBoo3aBNSJoRgHsNJ--32" value="生成销量数据" style="rounded=1;whiteSpace=wrap;html=1;shadow=0;labelBackgroundColor=none;strokeWidth=1;fontFamily=Verdana;fontSize=8;align=center;" vertex="1" parent="77e6c97f196da883-3">
          <mxGeometry x="500" y="30" width="100" height="60" as="geometry" />
        </mxCell>
        <mxCell id="PMfBoo3aBNSJoRgHsNJ--48" style="edgeStyle=orthogonalEdgeStyle;curved=1;rounded=1;hachureGap=4;orthogonalLoop=1;jettySize=auto;html=1;entryX=0;entryY=0.5;entryDx=0;entryDy=0;fontFamily=Architects Daughter;fontSource=https%3A%2F%2Ffonts.googleapis.com%2Fcss%3Ffamily%3DArchitects%2BDaughter;fontSize=16;" edge="1" parent="77e6c97f196da883-3" source="PMfBoo3aBNSJoRgHsNJ--46" target="PMfBoo3aBNSJoRgHsNJ--24">
          <mxGeometry relative="1" as="geometry" />
        </mxCell>
        <mxCell id="PMfBoo3aBNSJoRgHsNJ--46" value="生成识别日志" style="rounded=1;whiteSpace=wrap;html=1;shadow=0;labelBackgroundColor=none;strokeWidth=1;fontFamily=Verdana;fontSize=8;align=center;" vertex="1" parent="77e6c97f196da883-3">
          <mxGeometry x="500" y="110" width="100" height="60" as="geometry" />
        </mxCell>
        <mxCell id="PMfBoo3aBNSJoRgHsNJ--15" style="edgeStyle=orthogonalEdgeStyle;curved=1;rounded=0;orthogonalLoop=1;jettySize=auto;html=1;entryX=0;entryY=0.5;entryDx=0;entryDy=0;" edge="1" parent="77e6c97f196da883-1" source="PMfBoo3aBNSJoRgHsNJ--11" target="PMfBoo3aBNSJoRgHsNJ--13">
          <mxGeometry relative="1" as="geometry" />
        </mxCell>
        <mxCell id="PMfBoo3aBNSJoRgHsNJ--16" style="edgeStyle=orthogonalEdgeStyle;curved=1;rounded=0;orthogonalLoop=1;jettySize=auto;html=1;" edge="1" parent="77e6c97f196da883-1" source="PMfBoo3aBNSJoRgHsNJ--11" target="PMfBoo3aBNSJoRgHsNJ--14">
          <mxGeometry relative="1" as="geometry" />
        </mxCell>
      </root>
    </mxGraphModel>
  </diagram>
</mxfile>
